<svg width="38" height="33" viewBox="0 0 38 33" fill="none" xmlns="http://www.w3.org/2000/svg">
<path d="M14.5642 0C12.6328 0 10.7806 0.772617 9.41496 2.14788C8.0493 3.52315 7.28209 5.38841 7.28209 7.33333C7.28209 9.27825 8.0493 11.1435 9.41496 12.5188C10.7806 13.8941 12.6328 14.6667 14.5642 14.6667C16.4955 14.6667 18.3477 13.8941 19.7134 12.5188C21.079 11.1435 21.8463 9.27825 21.8463 7.33333C21.8463 5.38841 21.079 3.52315 19.7134 2.14788C18.3477 0.772617 16.4955 0 14.5642 0ZM14.5642 3.66667C15.5298 3.66667 16.456 4.05298 17.1388 4.74061C17.8216 5.42824 18.2052 6.36087 18.2052 7.33333C18.2052 8.30579 17.8216 9.23842 17.1388 9.92606C16.456 10.6137 15.5298 11 14.5642 11C13.5985 11 12.6724 10.6137 11.9896 9.92606C11.3067 9.23842 10.9231 8.30579 10.9231 7.33333C10.9231 6.36087 11.3067 5.42824 11.9896 4.74061C12.6724 4.05298 13.5985 3.66667 14.5642 3.66667ZM27.3078 14.6667C27.0165 14.6667 26.8709 14.8133 26.8709 15.1067L26.3976 17.4167C25.9971 17.7467 25.4145 18.04 24.9776 18.3333L22.6473 17.4167C22.5016 17.4167 22.2104 17.4167 22.0647 17.6L20.317 20.8267C20.1714 20.9733 20.1714 21.2667 20.4627 21.4133L22.356 22.9167V24.75L20.4627 26.2533C20.317 26.4 20.1714 26.6933 20.317 26.84L22.0647 30.0667C22.2104 30.25 22.5016 30.25 22.6473 30.25L24.9776 29.3333C25.4145 29.6267 25.9971 29.92 26.3976 30.25L26.8709 32.56C26.8709 32.8533 27.0165 33 27.3078 33H30.9489C31.0945 33 31.3858 32.8533 31.3858 32.56L31.6771 30.25C32.2596 29.92 32.8422 29.6267 33.2791 29.3333L35.5002 30.25C35.7551 30.25 36.0463 30.25 36.0463 30.0667L37.9397 26.84C38.0853 26.6933 37.9397 26.4 37.794 26.2533L35.9007 24.75V22.9167L37.794 21.4133C37.9397 21.2667 38.0853 20.9733 37.9397 20.8267L36.0463 17.6C36.0463 17.4167 35.7551 17.4167 35.5002 17.4167L33.2791 18.3333C32.8422 18.04 32.2596 17.7467 31.6771 17.4167L31.3858 15.1067C31.3858 14.8133 31.0945 14.6667 30.9489 14.6667H27.3078ZM14.5642 16.5C9.70338 16.5 0 18.9383 0 23.8333V29.3333H17.6044C17.0947 28.2517 16.7306 27.0783 16.5485 25.85H3.45899V23.8333C3.45899 22.66 9.15722 19.9833 14.5642 19.9833C15.347 19.9833 16.148 20.0567 16.9309 20.1667C17.295 18.9933 17.7865 17.8933 18.4237 16.885C17.0037 16.6467 15.6565 16.5 14.5642 16.5ZM29.2012 21.0833C30.6576 21.0833 31.8591 22.2933 31.8591 23.9067C31.8591 25.3733 30.6576 26.5833 29.2012 26.5833C27.5991 26.5833 26.3976 25.3733 26.3976 23.9067C26.3976 22.2933 27.5991 21.0833 29.2012 21.0833Z" fill="white"/>
</svg>
