<svg width="38" height="38" viewBox="0 0 38 38" fill="none" xmlns="http://www.w3.org/2000/svg">
<path d="M22.8 19H25.65V24.358L30.286 27.037L28.861 29.507L22.8 26.011V19ZM3.8 0H30.4C31.4078 0 32.3744 0.400356 33.087 1.11299C33.7996 1.82563 34.2 2.79218 34.2 3.8V15.39C36.556 17.784 38 21.071 38 24.7C38 28.2274 36.5988 31.6103 34.1045 34.1045C31.6103 36.5988 28.2274 38 24.7 38C21.071 38 17.784 36.556 15.39 34.2H3.8C2.79218 34.2 1.82563 33.7996 1.11299 33.087C0.400356 32.3744 0 31.4078 0 30.4V3.8C0 2.79218 0.400356 1.82563 1.11299 1.11299C1.82563 0.400356 2.79218 0 3.8 0ZM3.8 24.7V30.4H12.673C11.856 28.671 11.4 26.733 11.4 24.7H3.8ZM3.8 11.4H15.2V5.7H3.8V11.4ZM30.4 11.4V5.7H19V11.4H30.4ZM3.8 20.9H11.951C12.597 18.715 13.794 16.758 15.39 15.2H3.8V20.9ZM24.7 15.485C22.256 15.485 19.9122 16.4559 18.184 18.184C16.4559 19.9122 15.485 22.256 15.485 24.7C15.485 29.792 19.608 33.915 24.7 33.915C25.9101 33.915 27.1084 33.6766 28.2264 33.2136C29.3444 32.7505 30.3603 32.0717 31.216 31.216C32.0717 30.3603 32.7505 29.3444 33.2136 28.2264C33.6766 27.1084 33.915 25.9101 33.915 24.7C33.915 19.608 29.792 15.485 24.7 15.485Z" fill="white"/>
</svg>
