<svg width="38" height="23" viewBox="0 0 38 23" fill="none" xmlns="http://www.w3.org/2000/svg">
<path d="M19 0C17.5303 0 16.1207 0.605802 15.0815 1.68414C14.0422 2.76247 13.4583 4.22501 13.4583 5.75C13.4583 7.27499 14.0422 8.73753 15.0815 9.81586C16.1207 10.8942 17.5303 11.5 19 11.5C20.4697 11.5 21.8793 10.8942 22.9186 9.81586C23.9578 8.73753 24.5417 7.27499 24.5417 5.75C24.5417 4.22501 23.9578 2.76247 22.9186 1.68414C21.8793 0.605802 20.4697 0 19 0ZM19 3.28571C19.6299 3.28571 20.234 3.54534 20.6794 4.00749C21.1248 4.46963 21.375 5.09643 21.375 5.75C21.375 6.40357 21.1248 7.03037 20.6794 7.49251C20.234 7.95466 19.6299 8.21429 19 8.21429C18.3701 8.21429 17.766 7.95466 17.3206 7.49251C16.8752 7.03037 16.625 6.40357 16.625 5.75C16.625 5.09643 16.8752 4.46963 17.3206 4.00749C17.766 3.54534 18.3701 3.28571 19 3.28571ZM8.70833 4.92857C7.65852 4.92857 6.6517 5.36129 5.90937 6.13153C5.16704 6.90176 4.75 7.94643 4.75 9.03571C4.75 10.58 5.58917 11.9107 6.7925 12.6171C7.3625 12.9457 8.01167 13.1429 8.70833 13.1429C9.405 13.1429 10.0542 12.9457 10.6242 12.6171C11.21 12.2721 11.7008 11.7793 12.065 11.1879C10.9092 9.62714 10.2917 7.72143 10.2917 5.75C10.2917 5.60214 10.2917 5.43786 10.2917 5.29C9.81667 5.06 9.27833 4.92857 8.70833 4.92857ZM29.2917 4.92857C28.7217 4.92857 28.1833 5.06 27.7083 5.29C27.7083 5.43786 27.7083 5.60214 27.7083 5.75C27.7083 7.72143 27.0908 9.62714 25.935 11.1879C26.125 11.5 26.3308 11.7464 26.5683 11.9929C26.8217 12.2393 27.075 12.4529 27.3758 12.6171C27.9458 12.9457 28.595 13.1429 29.2917 13.1429C29.9883 13.1429 30.6375 12.9457 31.2075 12.6171C32.4108 11.9107 33.25 10.58 33.25 9.03571C33.25 7.94643 32.833 6.90176 32.0906 6.13153C31.3483 5.36129 30.3415 4.92857 29.2917 4.92857ZM19 14.7857C15.295 14.7857 7.91667 16.7079 7.91667 20.5357V23H30.0833V20.5357C30.0833 16.7079 22.705 14.7857 19 14.7857ZM7.4575 15.6893C4.40167 16.0671 0 17.6771 0 20.5357V23H4.75V19.8293C4.75 18.17 5.8425 16.79 7.4575 15.6893ZM30.5425 15.6893C32.1575 16.79 33.25 18.17 33.25 19.8293V23H38V20.5357C38 17.6771 33.5983 16.0671 30.5425 15.6893ZM19 18.0714C21.4225 18.0714 24.13 18.8929 25.6975 19.7143H12.3025C13.87 18.8929 16.5775 18.0714 19 18.0714Z" fill="white"/>
</svg>
