<svg width="38" height="35" viewBox="0 0 38 35" fill="none" xmlns="http://www.w3.org/2000/svg">
<path d="M26.7727 23.1875L31.7127 26.145L30.4173 28.28L24.1818 24.5V15.75H26.7727V23.1875ZM38 22.75C38 29.5225 32.5936 35 25.9091 35C21.7982 35 18.1882 32.9175 15.9945 29.75H5.18182V15.75H0L17.2727 0L29.3636 11.0075C34.3555 12.5125 38 17.2025 38 22.75ZM14.3191 26.25C14.0082 25.1475 13.8182 23.975 13.8182 22.75C13.8182 16.695 18.1364 11.69 23.8364 10.6925L17.2727 4.7075L8.63636 12.5825V26.25H14.3191ZM34.5455 22.75C34.5455 17.92 30.6764 14 25.9091 14C21.1418 14 17.2727 17.92 17.2727 22.75C17.2727 27.58 21.1418 31.5 25.9091 31.5C30.6764 31.5 34.5455 27.58 34.5455 22.75Z" fill="white"/>
</svg>
