<svg width="30" height="30" viewBox="0 0 30 30" fill="none" xmlns="http://www.w3.org/2000/svg">
<path d="M18.4667 20.9833L22.7833 16.6667H6.66667V13.3333H22.7833L18.4667 9.01667L20.8333 6.66667L29.1667 15L20.8333 23.3333L18.4667 20.9833ZM26.6667 0C27.5507 0 28.3986 0.351189 29.0237 0.976311C29.6488 1.60143 30 2.44928 30 3.33333V11.1167L26.6667 7.78333V3.33333H3.33333V26.6667H26.6667V22.2167L30 18.8833V26.6667C30 27.5507 29.6488 28.3986 29.0237 29.0237C28.3986 29.6488 27.5507 30 26.6667 30H3.33333C1.48333 30 0 28.5 0 26.6667V3.33333C0 1.48333 1.48333 0 3.33333 0H26.6667Z" fill="#F8FAFB"/>
</svg>
